<svg width="186" height="221" viewBox="0 0 186 221" fill="none" xmlns="http://www.w3.org/2000/svg">
<g filter="url(#filter0_d_1408_8726)">
<g clip-path="url(#clip0_1408_8726)">
<rect x="10.918" y="8" width="164.666" height="201" rx="10" fill="white"/>
<path d="M32.0117 48.1591V46.3835L38.2972 36.4545H39.6964V39.0682H38.8086L34.3129 46.1847V46.2983H42.9279V48.1591H32.0117ZM38.908 51V47.6193L38.9222 46.8097V36.4545H41.0032V51H38.908ZM45.5531 51V49.4091L50.4749 44.3097C51.0005 43.7557 51.4337 43.2704 51.7746 42.8537C52.1203 42.4323 52.3783 42.0322 52.5488 41.6534C52.7192 41.2746 52.8045 40.8722 52.8045 40.446C52.8045 39.9631 52.6908 39.5464 52.4636 39.196C52.2363 38.8409 51.9262 38.5687 51.5332 38.3793C51.1402 38.1851 50.6975 38.0881 50.205 38.0881C49.6842 38.0881 49.2297 38.1946 48.8414 38.4077C48.4531 38.6207 48.1549 38.9214 47.9465 39.3097C47.7382 39.6979 47.634 40.1525 47.634 40.6733H45.5388C45.5388 39.7879 45.7424 39.0137 46.1496 38.3509C46.5568 37.688 47.1156 37.1742 47.8258 36.8097C48.536 36.4403 49.3433 36.2557 50.2477 36.2557C51.1615 36.2557 51.9664 36.438 52.6624 36.8026C53.3632 37.1624 53.9101 37.6548 54.3031 38.2798C54.696 38.9001 54.8925 39.6009 54.8925 40.3821C54.8925 40.9219 54.7907 41.4498 54.5871 41.9659C54.3883 42.482 54.0403 43.0573 53.5431 43.6918C53.046 44.3215 52.3547 45.0862 51.4692 45.9858L48.5786 49.0114V49.1179H55.1269V51H45.5531ZM59.3962 51.1349C59.008 51.1349 58.6742 50.9976 58.3948 50.723C58.1155 50.4437 57.9758 50.1075 57.9758 49.7145C57.9758 49.3262 58.1155 48.9948 58.3948 48.7202C58.6742 48.4408 59.008 48.3011 59.3962 48.3011C59.7845 48.3011 60.1183 48.4408 60.3977 48.7202C60.677 48.9948 60.8167 49.3262 60.8167 49.7145C60.8167 49.9749 60.7504 50.214 60.6178 50.4318C60.49 50.6449 60.3195 50.8153 60.1065 50.9432C59.8934 51.071 59.6567 51.1349 59.3962 51.1349ZM68.3495 51.1989C67.4594 51.1989 66.6592 51.0284 65.9489 50.6875C65.2434 50.3419 64.68 49.8684 64.2586 49.267C63.8372 48.6657 63.6123 47.9792 63.5839 47.2074H65.7146C65.7666 47.8324 66.0436 48.3461 66.5455 48.7486C67.0474 49.151 67.6487 49.3523 68.3495 49.3523C68.9082 49.3523 69.403 49.2244 69.8339 48.9688C70.2695 48.7083 70.6104 48.3509 70.8566 47.8963C71.1076 47.4418 71.233 46.9233 71.233 46.3409C71.233 45.7491 71.1052 45.2211 70.8495 44.7571C70.5938 44.2931 70.2411 43.9285 69.7913 43.6634C69.3462 43.3982 68.8348 43.2633 68.2572 43.2585C67.8168 43.2585 67.3741 43.3343 66.929 43.4858C66.484 43.6373 66.1241 43.8362 65.8495 44.0824L63.8396 43.7841L64.6563 36.4545H72.6535V38.3366H66.4816L66.02 42.4062H66.1052C66.3893 42.1316 66.7657 41.902 67.2344 41.7173C67.7079 41.5327 68.2146 41.4403 68.7543 41.4403C69.6397 41.4403 70.4281 41.651 71.1194 42.0724C71.8154 42.4938 72.3623 43.0691 72.76 43.7983C73.1625 44.5227 73.3613 45.3561 73.3566 46.2983C73.3613 47.2405 73.1483 48.081 72.7174 48.8196C72.2913 49.5582 71.6994 50.1406 70.9418 50.5668C70.189 50.9882 69.3249 51.1989 68.3495 51.1989ZM78.0822 47.2997L78.068 44.7074H78.4374L82.7839 40.0909H85.3266L80.3692 45.3466H80.0354L78.0822 47.2997ZM76.1291 51V36.4545H78.2527V51H76.1291ZM83.0183 51L79.1121 45.8153L80.5751 44.331L85.6249 51H83.0183ZM94.5523 36.4545L98.0325 42.1435H98.1461L101.626 36.4545H104.169L99.6376 43.7273L104.197 51H101.64L98.1461 45.3892H98.0325L94.5381 51H91.9813L96.6191 43.7273L92.0097 36.4545H94.5523ZM107.724 51H105.395L110.629 36.4545H113.165L118.399 51H116.07L111.957 39.0966H111.844L107.724 51ZM108.115 45.304H115.672V47.1506H108.115V45.304ZM120.65 51V36.4545H129.669V38.3438H122.844V42.7756H129.023V44.6577H122.844V51H120.65Z" fill="#151B26"/>
<path d="M140.91 47.7898V41.0682H142.248V47.7898H140.91ZM138.221 45.0952V43.7628H144.942V45.0952H138.221ZM150.876 49.6392C150.422 49.6326 149.975 49.5497 149.534 49.3906C149.096 49.2315 148.699 48.9664 148.341 48.5952C147.983 48.224 147.696 47.7251 147.481 47.0987C147.269 46.4723 147.163 45.6901 147.163 44.7521C147.163 43.8639 147.25 43.075 147.426 42.3857C147.605 41.6963 147.862 41.1146 148.197 40.6406C148.531 40.1634 148.936 39.8004 149.41 39.5518C149.884 39.3033 150.416 39.179 151.006 39.179C151.612 39.179 152.151 39.2983 152.621 39.5369C153.092 39.7756 153.473 40.1054 153.765 40.5263C154.06 40.9472 154.247 41.4261 154.327 41.9631H152.81C152.707 41.5388 152.504 41.1925 152.199 40.924C151.894 40.6555 151.496 40.5213 151.006 40.5213C150.26 40.5213 149.678 40.8461 149.261 41.4957C148.846 42.1454 148.637 43.0485 148.634 44.2053H148.709C148.884 43.9169 149.1 43.6716 149.355 43.4695C149.613 43.264 149.902 43.1065 150.22 42.9972C150.542 42.8845 150.88 42.8281 151.234 42.8281C151.824 42.8281 152.358 42.9723 152.835 43.2607C153.316 43.5457 153.698 43.9401 153.984 44.4439C154.269 44.9477 154.411 45.5244 154.411 46.174C154.411 46.8236 154.264 47.4119 153.969 47.9389C153.677 48.4659 153.266 48.8835 152.736 49.1918C152.205 49.4967 151.586 49.6458 150.876 49.6392ZM150.871 48.3466C151.262 48.3466 151.612 48.2505 151.92 48.0582C152.229 47.866 152.472 47.6075 152.651 47.2827C152.83 46.9579 152.92 46.5949 152.92 46.1939C152.92 45.8028 152.832 45.4465 152.656 45.125C152.484 44.8035 152.245 44.5483 151.94 44.3594C151.639 44.1705 151.294 44.076 150.906 44.076C150.611 44.076 150.338 44.1323 150.086 44.245C149.837 44.3577 149.618 44.5135 149.43 44.7124C149.241 44.9112 149.091 45.1399 148.982 45.3984C148.876 45.6536 148.823 45.9238 148.823 46.2088C148.823 46.59 148.911 46.9429 149.087 47.2678C149.265 47.5926 149.509 47.8544 149.817 48.0533C150.129 48.2488 150.48 48.3466 150.871 48.3466ZM156.322 49.5V48.3864L159.767 44.8168C160.135 44.429 160.438 44.0893 160.677 43.7976C160.919 43.5026 161.1 43.2225 161.219 42.9574C161.338 42.6922 161.398 42.4105 161.398 42.1122C161.398 41.7741 161.318 41.4825 161.159 41.2372C161 40.9886 160.783 40.7981 160.508 40.6655C160.233 40.5296 159.923 40.4616 159.578 40.4616C159.214 40.4616 158.896 40.5362 158.624 40.6854C158.352 40.8345 158.143 41.045 157.997 41.3168C157.852 41.5885 157.779 41.9067 157.779 42.2713H156.312C156.312 41.6515 156.455 41.1096 156.74 40.6456C157.025 40.1816 157.416 39.822 157.913 39.5668C158.41 39.3082 158.975 39.179 159.608 39.179C160.248 39.179 160.811 39.3066 161.299 39.5618C161.789 39.8137 162.172 40.1584 162.447 40.5959C162.722 41.0301 162.86 41.5206 162.86 42.0675C162.86 42.4453 162.788 42.8149 162.646 43.1761C162.507 43.5374 162.263 43.9401 161.915 44.3842C161.567 44.825 161.083 45.3603 160.463 45.9901L158.44 48.108V48.1825H163.024V49.5H156.322ZM170.323 47.5909V47.054C170.323 46.6695 170.402 46.3182 170.561 46C170.724 45.6785 170.959 45.4216 171.267 45.2294C171.579 45.0339 171.955 44.9361 172.396 44.9361C172.846 44.9361 173.224 45.0322 173.529 45.2244C173.834 45.4167 174.065 45.6735 174.22 45.995C174.379 46.3165 174.459 46.6695 174.459 47.054V47.5909C174.459 47.9754 174.379 48.3284 174.22 48.6499C174.061 48.968 173.828 49.2249 173.519 49.4205C173.214 49.6127 172.84 49.7088 172.396 49.7088C171.948 49.7088 171.57 49.6127 171.262 49.4205C170.954 49.2249 170.72 48.968 170.561 48.6499C170.402 48.3284 170.323 47.9754 170.323 47.5909ZM171.481 47.054V47.5909C171.481 47.8759 171.549 48.1345 171.685 48.3665C171.821 48.5985 172.058 48.7145 172.396 48.7145C172.73 48.7145 172.964 48.5985 173.097 48.3665C173.229 48.1345 173.296 47.8759 173.296 47.5909V47.054C173.296 46.7689 173.231 46.5104 173.102 46.2784C172.976 46.0464 172.74 45.9304 172.396 45.9304C172.064 45.9304 171.829 46.0464 171.69 46.2784C171.551 46.5104 171.481 46.7689 171.481 47.054ZM165.202 41.7642V41.2273C165.202 40.8428 165.281 40.4898 165.44 40.1683C165.603 39.8468 165.838 39.59 166.146 39.3977C166.458 39.2055 166.834 39.1094 167.275 39.1094C167.726 39.1094 168.104 39.2055 168.408 39.3977C168.713 39.59 168.944 39.8468 169.1 40.1683C169.255 40.4898 169.333 40.8428 169.333 41.2273V41.7642C169.333 42.1487 169.254 42.5017 169.095 42.8232C168.939 43.1413 168.707 43.3982 168.399 43.5938C168.094 43.786 167.719 43.8821 167.275 43.8821C166.824 43.8821 166.445 43.786 166.136 43.5938C165.832 43.3982 165.6 43.1413 165.44 42.8232C165.281 42.5017 165.202 42.1487 165.202 41.7642ZM166.365 41.2273V41.7642C166.365 42.0492 166.431 42.3078 166.564 42.5398C166.7 42.7718 166.937 42.8878 167.275 42.8878C167.606 42.8878 167.838 42.7718 167.971 42.5398C168.107 42.3078 168.175 42.0492 168.175 41.7642V41.2273C168.175 40.9422 168.11 40.6837 167.981 40.4517C167.852 40.2197 167.616 40.1037 167.275 40.1037C166.944 40.1037 166.708 40.2197 166.569 40.4517C166.433 40.6837 166.365 40.9422 166.365 41.2273ZM165.674 49.5L172.674 39.3182H173.862L166.862 49.5H165.674Z" fill="#72E128"/>
<path d="M37.7191 68.3636C37.6594 67.8598 37.4175 67.4688 36.9933 67.1903C36.569 66.9119 36.0487 66.7727 35.4322 66.7727C34.9814 66.7727 34.587 66.8456 34.2489 66.9915C33.9142 67.1373 33.6523 67.3378 33.4634 67.593C33.2778 67.8482 33.185 68.1383 33.185 68.4631C33.185 68.7348 33.2496 68.9685 33.3789 69.1641C33.5115 69.3563 33.6805 69.517 33.886 69.6463C34.0915 69.7723 34.3069 69.8767 34.5323 69.9595C34.7577 70.0391 34.9648 70.1037 35.1538 70.1534L36.1879 70.4318C36.453 70.5014 36.748 70.5975 37.0728 70.7202C37.4009 70.8428 37.7141 71.0102 38.0124 71.2223C38.314 71.4311 38.5626 71.6996 38.7582 72.0277C38.9537 72.3558 39.0515 72.7585 39.0515 73.2358C39.0515 73.786 38.9073 74.2831 38.619 74.7273C38.3339 75.1714 37.9163 75.5244 37.3661 75.7862C36.8192 76.0481 36.1547 76.179 35.3725 76.179C34.6433 76.179 34.012 76.0613 33.4783 75.826C32.948 75.5907 32.5304 75.2625 32.2255 74.8416C31.9239 74.4207 31.7532 73.9318 31.7134 73.375H32.9862C33.0193 73.7595 33.1486 74.0777 33.3739 74.3295C33.6026 74.5781 33.891 74.7637 34.239 74.8864C34.5903 75.0057 34.9682 75.0653 35.3725 75.0653C35.8432 75.0653 36.2657 74.9891 36.6403 74.8366C37.0148 74.6809 37.3114 74.4654 37.5302 74.1903C37.7489 73.9119 37.8583 73.5871 37.8583 73.2159C37.8583 72.8778 37.7638 72.6027 37.5749 72.3906C37.386 72.1785 37.1374 72.0062 36.8292 71.8736C36.521 71.741 36.1879 71.625 35.8299 71.5256L34.5771 71.1676C33.7816 70.9389 33.1519 70.6125 32.6879 70.1882C32.2238 69.764 31.9918 69.2088 31.9918 68.5227C31.9918 67.9527 32.146 67.4555 32.4542 67.0312C32.7657 66.6037 33.1834 66.2723 33.707 66.0369C34.234 65.7983 34.8223 65.679 35.4719 65.679C36.1282 65.679 36.7115 65.7966 37.2219 66.032C37.7324 66.264 38.1367 66.5821 38.435 66.9865C38.7366 67.3909 38.8957 67.8499 38.9123 68.3636H37.7191ZM44.2713 76.1591C43.5355 76.1591 42.9008 75.9967 42.3672 75.6719C41.8368 75.3438 41.4275 74.8864 41.1392 74.2997C40.8541 73.7098 40.7116 73.0237 40.7116 72.2415C40.7116 71.4593 40.8541 70.7699 41.1392 70.1733C41.4275 69.5734 41.8286 69.1061 42.3423 68.7713C42.8593 68.4332 43.4626 68.2642 44.152 68.2642C44.5497 68.2642 44.9424 68.3305 45.3302 68.4631C45.718 68.5956 46.071 68.8111 46.3892 69.1094C46.7074 69.4044 46.9609 69.7955 47.1498 70.2827C47.3387 70.7699 47.4332 71.3698 47.4332 72.0824V72.5795H41.5468V71.5653H46.24C46.24 71.1345 46.1538 70.75 45.9815 70.4119C45.8125 70.0739 45.5705 69.8071 45.2556 69.6115C44.9441 69.416 44.5762 69.3182 44.152 69.3182C43.6846 69.3182 43.2803 69.4342 42.9389 69.6662C42.6008 69.8949 42.3406 70.1932 42.1583 70.5611C41.9761 70.929 41.8849 71.3234 41.8849 71.7443V72.4205C41.8849 72.9972 41.9843 73.486 42.1832 73.8871C42.3854 74.2848 42.6654 74.5881 43.0234 74.7969C43.3814 75.0024 43.7973 75.1051 44.2713 75.1051C44.5795 75.1051 44.8579 75.062 45.1065 74.9759C45.3584 74.8864 45.5755 74.7538 45.7578 74.5781C45.9401 74.3991 46.0809 74.1771 46.1804 73.9119L47.3139 74.2301C47.1946 74.6146 46.994 74.9527 46.7123 75.2443C46.4306 75.5327 46.0826 75.758 45.6683 75.9205C45.254 76.0795 44.7883 76.1591 44.2713 76.1591ZM54.7771 70.0739L53.7231 70.3722C53.6568 70.1965 53.5591 70.0258 53.4298 69.8601C53.3038 69.6911 53.1315 69.5518 52.9127 69.4425C52.694 69.3331 52.4139 69.2784 52.0725 69.2784C51.6052 69.2784 51.2158 69.3861 50.9042 69.6016C50.596 69.8137 50.4419 70.0838 50.4419 70.4119C50.4419 70.7036 50.5479 70.9339 50.76 71.103C50.9722 71.272 51.3036 71.4129 51.7544 71.5256L52.8879 71.804C53.5707 71.9697 54.0794 72.2232 54.4142 72.5646C54.7489 72.9027 54.9163 73.3385 54.9163 73.8722C54.9163 74.3097 54.7904 74.7008 54.5385 75.0455C54.2899 75.3902 53.9419 75.6619 53.4944 75.8608C53.047 76.0597 52.5266 76.1591 51.9333 76.1591C51.1545 76.1591 50.5098 75.9901 49.9994 75.652C49.489 75.3139 49.1658 74.8201 49.0299 74.1705L50.1436 73.892C50.2496 74.303 50.4502 74.6113 50.7451 74.8168C51.0434 75.0223 51.4329 75.125 51.9135 75.125C52.4603 75.125 52.8945 75.009 53.216 74.777C53.5408 74.5417 53.7032 74.2599 53.7032 73.9318C53.7032 73.6667 53.6104 73.4446 53.4248 73.2656C53.2392 73.0833 52.9542 72.9474 52.5697 72.858L51.297 72.5597C50.5976 72.3939 50.0839 72.1371 49.7558 71.7891C49.431 71.4377 49.2686 70.9986 49.2686 70.4716C49.2686 70.0407 49.3895 69.6596 49.6315 69.3281C49.8768 68.9967 50.2099 68.7365 50.6308 68.5476C51.055 68.3587 51.5356 68.2642 52.0725 68.2642C52.8282 68.2642 53.4215 68.4299 53.8524 68.7614C54.2866 69.0928 54.5948 69.5303 54.7771 70.0739ZM62.2415 70.0739L61.1876 70.3722C61.1213 70.1965 61.0235 70.0258 60.8942 69.8601C60.7683 69.6911 60.596 69.5518 60.3772 69.4425C60.1585 69.3331 59.8784 69.2784 59.537 69.2784C59.0697 69.2784 58.6802 69.3861 58.3687 69.6016C58.0604 69.8137 57.9063 70.0838 57.9063 70.4119C57.9063 70.7036 58.0124 70.9339 58.2245 71.103C58.4366 71.272 58.7681 71.4129 59.2188 71.5256L60.3523 71.804C61.0351 71.9697 61.5439 72.2232 61.8786 72.5646C62.2134 72.9027 62.3808 73.3385 62.3808 73.8722C62.3808 74.3097 62.2548 74.7008 62.0029 75.0455C61.7543 75.3902 61.4063 75.6619 60.9589 75.8608C60.5114 76.0597 59.9911 76.1591 59.3978 76.1591C58.6189 76.1591 57.9743 75.9901 57.4639 75.652C56.9534 75.3139 56.6303 74.8201 56.4944 74.1705L57.608 73.892C57.7141 74.303 57.9146 74.6113 58.2096 74.8168C58.5079 75.0223 58.8973 75.125 59.3779 75.125C59.9248 75.125 60.359 75.009 60.6805 74.777C61.0053 74.5417 61.1677 74.2599 61.1677 73.9318C61.1677 73.6667 61.0749 73.4446 60.8893 73.2656C60.7037 73.0833 60.4186 72.9474 60.0342 72.858L58.7614 72.5597C58.0621 72.3939 57.5484 72.1371 57.2202 71.7891C56.8954 71.4377 56.733 70.9986 56.733 70.4716C56.733 70.0407 56.854 69.6596 57.096 69.3281C57.3412 68.9967 57.6743 68.7365 58.0952 68.5476C58.5195 68.3587 59.0001 68.2642 59.537 68.2642C60.2927 68.2642 60.886 68.4299 61.3168 68.7614C61.751 69.0928 62.0593 69.5303 62.2415 70.0739ZM64.2969 76V68.3636H65.4702V76H64.2969ZM64.8935 67.0909C64.6648 67.0909 64.4676 67.013 64.3019 66.8572C64.1395 66.7015 64.0583 66.5142 64.0583 66.2955C64.0583 66.0767 64.1395 65.8894 64.3019 65.7337C64.4676 65.5779 64.6648 65.5 64.8935 65.5C65.1222 65.5 65.3177 65.5779 65.4801 65.7337C65.6459 65.8894 65.7287 66.0767 65.7287 66.2955C65.7287 66.5142 65.6459 66.7015 65.4801 66.8572C65.3177 67.013 65.1222 67.0909 64.8935 67.0909ZM70.8714 76.1591C70.1821 76.1591 69.5772 75.995 69.0568 75.6669C68.5398 75.3388 68.1354 74.8797 67.8438 74.2898C67.5554 73.6998 67.4112 73.0104 67.4112 72.2216C67.4112 71.4261 67.5554 70.7318 67.8438 70.1385C68.1354 69.5452 68.5398 69.0845 69.0568 68.7564C69.5772 68.4283 70.1821 68.2642 70.8714 68.2642C71.5608 68.2642 72.1641 68.4283 72.6811 68.7564C73.2015 69.0845 73.6058 69.5452 73.8942 70.1385C74.1858 70.7318 74.3317 71.4261 74.3317 72.2216C74.3317 73.0104 74.1858 73.6998 73.8942 74.2898C73.6058 74.8797 73.2015 75.3388 72.6811 75.6669C72.1641 75.995 71.5608 76.1591 70.8714 76.1591ZM70.8714 75.1051C71.3951 75.1051 71.826 74.9709 72.1641 74.7024C72.5021 74.4339 72.7524 74.081 72.9148 73.6435C73.0772 73.206 73.1584 72.732 73.1584 72.2216C73.1584 71.7112 73.0772 71.2356 72.9148 70.7947C72.7524 70.3539 72.5021 69.9976 72.1641 69.7259C71.826 69.4541 71.3951 69.3182 70.8714 69.3182C70.3478 69.3182 69.9169 69.4541 69.5788 69.7259C69.2408 69.9976 68.9905 70.3539 68.8281 70.7947C68.6657 71.2356 68.5845 71.7112 68.5845 72.2216C68.5845 72.732 68.6657 73.206 68.8281 73.6435C68.9905 74.081 69.2408 74.4339 69.5788 74.7024C69.9169 74.9709 70.3478 75.1051 70.8714 75.1051ZM77.446 71.4062V76H76.2727V68.3636H77.4062V69.5568H77.5056C77.6846 69.169 77.9564 68.8575 78.321 68.6222C78.6856 68.3835 79.1562 68.2642 79.7329 68.2642C80.25 68.2642 80.7024 68.3703 81.0902 68.5824C81.4779 68.7912 81.7796 69.1094 81.995 69.5369C82.2104 69.9612 82.3181 70.4981 82.3181 71.1477V76H81.1449V71.2273C81.1449 70.6274 80.9891 70.16 80.6775 69.8253C80.366 69.4872 79.9384 69.3182 79.3949 69.3182C79.0203 69.3182 78.6856 69.3994 78.3906 69.5618C78.0989 69.7242 77.8686 69.9612 77.6995 70.2727C77.5305 70.5843 77.446 70.9621 77.446 71.4062ZM90.0212 70.0739L88.9673 70.3722C88.901 70.1965 88.8032 70.0258 88.6739 69.8601C88.548 69.6911 88.3756 69.5518 88.1569 69.4425C87.9381 69.3331 87.6581 69.2784 87.3167 69.2784C86.8494 69.2784 86.4599 69.3861 86.1484 69.6016C85.8401 69.8137 85.686 70.0838 85.686 70.4119C85.686 70.7036 85.7921 70.9339 86.0042 71.103C86.2163 71.272 86.5478 71.4129 86.9985 71.5256L88.132 71.804C88.8148 71.9697 89.3236 72.2232 89.6583 72.5646C89.9931 72.9027 90.1604 73.3385 90.1604 73.8722C90.1604 74.3097 90.0345 74.7008 89.7826 75.0455C89.534 75.3902 89.186 75.6619 88.7386 75.8608C88.2911 76.0597 87.7708 76.1591 87.1775 76.1591C86.3986 76.1591 85.754 75.9901 85.2435 75.652C84.7331 75.3139 84.41 74.8201 84.2741 74.1705L85.3877 73.892C85.4938 74.303 85.6943 74.6113 85.9893 74.8168C86.2876 75.0223 86.677 75.125 87.1576 75.125C87.7045 75.125 88.1387 75.009 88.4602 74.777C88.785 74.5417 88.9474 74.2599 88.9474 73.9318C88.9474 73.6667 88.8546 73.4446 88.669 73.2656C88.4834 73.0833 88.1983 72.9474 87.8138 72.858L86.5411 72.5597C85.8418 72.3939 85.3281 72.1371 84.9999 71.7891C84.6751 71.4377 84.5127 70.9986 84.5127 70.4716C84.5127 70.0407 84.6337 69.6596 84.8756 69.3281C85.1209 68.9967 85.454 68.7365 85.8749 68.5476C86.2992 68.3587 86.7798 68.2642 87.3167 68.2642C88.0724 68.2642 88.6656 68.4299 89.0965 68.7614C89.5307 69.0928 89.8389 69.5303 90.0212 70.0739Z" fill="#4C4E64" fill-opacity="0.6"/>
<line x1="30.6339" y1="96" x2="30.6338" y2="189" stroke="#4C4E64" stroke-opacity="0.12" stroke-dasharray="6 6"/>
<line x1="54.4605" y1="96" x2="54.4605" y2="189" stroke="#4C4E64" stroke-opacity="0.12" stroke-dasharray="6 6"/>
<line x1="78.2871" y1="96" x2="78.2871" y2="189" stroke="#4C4E64" stroke-opacity="0.12" stroke-dasharray="6 6"/>
<line x1="102.114" y1="96" x2="102.114" y2="189" stroke="#4C4E64" stroke-opacity="0.12" stroke-dasharray="6 6"/>
<line x1="125.94" y1="96" x2="125.94" y2="189" stroke="#4C4E64" stroke-opacity="0.12" stroke-dasharray="6 6"/>
<line x1="149.767" y1="96" x2="149.767" y2="189" stroke="#4C4E64" stroke-opacity="0.12" stroke-dasharray="6 6"/>
<path d="M30.1339 186.943L54.4187 151.493L78.2453 179.217L103.447 132.86L126.357 160.583L149.725 104.227" stroke="#26C6F9" stroke-width="3" stroke-linecap="round"/>
<circle cx="149.368" cy="106" r="5.5" fill="white" stroke="#26C6F9" stroke-width="3"/>
</g>
</g>
<defs>
<filter id="filter0_d_1408_8726" x="0.917969" y="0" width="184.666" height="221" filterUnits="userSpaceOnUse" color-interpolation-filters="sRGB">
<feFlood flood-opacity="0" result="BackgroundImageFix"/>
<feColorMatrix in="SourceAlpha" type="matrix" values="0 0 0 0 0 0 0 0 0 0 0 0 0 0 0 0 0 0 127 0" result="hardAlpha"/>
<feOffset dy="2"/>
<feGaussianBlur stdDeviation="5"/>
<feColorMatrix type="matrix" values="0 0 0 0 0.298039 0 0 0 0 0.305882 0 0 0 0 0.392157 0 0 0 0.22 0"/>
<feBlend mode="normal" in2="BackgroundImageFix" result="effect1_dropShadow_1408_8726"/>
<feBlend mode="normal" in="SourceGraphic" in2="effect1_dropShadow_1408_8726" result="shape"/>
</filter>
<clipPath id="clip0_1408_8726">
<rect x="10.918" y="8" width="164.666" height="201" rx="10" fill="white"/>
</clipPath>
</defs>
</svg>
