<svg width="279" height="100" viewBox="0 0 279 100" fill="none" xmlns="http://www.w3.org/2000/svg">
<g filter="url(#filter0_d_1408_8716)">
<rect x="10.1819" y="8" width="258.715" height="80" rx="10" fill="white"/>
<rect x="30.1819" y="28" width="40" height="40" rx="8" fill="#666CFF"/>
<rect x="30.1819" y="28" width="40" height="40" rx="8" fill="white" fill-opacity="0.88"/>
<path d="M50.1819 41.9C51.3419 41.9 52.2819 42.84 52.2819 44C52.2819 45.16 51.3419 46.1 50.1819 46.1C49.0219 46.1 48.0819 45.16 48.0819 44C48.0819 42.84 49.0219 41.9 50.1819 41.9ZM50.1819 50.9C53.1519 50.9 56.2819 52.36 56.2819 53V54.1H44.0819V53C44.0819 52.36 47.2119 50.9 50.1819 50.9ZM50.1819 40C47.9719 40 46.1819 41.79 46.1819 44C46.1819 46.21 47.9719 48 50.1819 48C52.3919 48 54.1819 46.21 54.1819 44C54.1819 41.79 52.3919 40 50.1819 40ZM50.1819 49C47.5119 49 42.1819 50.34 42.1819 53V56H58.1819V53C58.1819 50.34 52.8519 49 50.1819 49Z" fill="#1A7DC0"/>
<path d="M92.4958 48.1989C91.4778 48.1989 90.5782 48.0237 89.7969 47.6733C89.0204 47.3229 88.412 46.84 87.9717 46.2244C87.5313 45.6089 87.3135 44.9081 87.3182 44.1222C87.3135 43.5066 87.439 42.9408 87.6947 42.4247C87.9551 41.9039 88.3078 41.4706 88.7529 41.125C89.198 40.7746 89.6951 40.5521 90.2444 40.4574V40.3722C89.52 40.197 88.9399 39.8087 88.5043 39.2074C88.0687 38.6061 87.8533 37.9148 87.858 37.1335C87.8533 36.3902 88.0498 35.7273 88.4475 35.1449C88.85 34.5578 89.4016 34.0961 90.1023 33.7599C90.8031 33.4238 91.6009 33.2557 92.4958 33.2557C93.3812 33.2557 94.1719 33.4261 94.868 33.767C95.5687 34.1032 96.1203 34.5649 96.5228 35.152C96.9253 35.7344 97.1289 36.3949 97.1336 37.1335C97.1289 37.9148 96.9063 38.6061 96.466 39.2074C96.0256 39.8087 95.4527 40.197 94.7472 40.3722V40.4574C95.2917 40.5521 95.7818 40.7746 96.2174 41.125C96.6577 41.4706 97.0081 41.9039 97.2685 42.4247C97.5337 42.9408 97.6686 43.5066 97.6734 44.1222C97.6686 44.9081 97.4461 45.6089 97.0057 46.2244C96.5654 46.84 95.9546 47.3229 95.1734 47.6733C94.3968 48.0237 93.5043 48.1989 92.4958 48.1989ZM92.4958 46.402C93.0971 46.402 93.618 46.3026 94.0583 46.1037C94.4986 45.9001 94.8396 45.6184 95.081 45.2585C95.3225 44.8939 95.4456 44.4678 95.4504 43.9801C95.4456 43.4735 95.313 43.026 95.0526 42.6378C94.7969 42.2495 94.4489 41.9441 94.0086 41.7216C93.5682 41.4991 93.064 41.3878 92.4958 41.3878C91.9229 41.3878 91.4139 41.4991 90.9688 41.7216C90.5237 41.9441 90.1734 42.2495 89.9177 42.6378C89.662 43.026 89.5365 43.4735 89.5413 43.9801C89.5365 44.4678 89.6525 44.8939 89.8893 45.2585C90.1307 45.6184 90.474 45.9001 90.9191 46.1037C91.3642 46.3026 91.8897 46.402 92.4958 46.402ZM92.4958 39.6335C92.9788 39.6335 93.4073 39.5365 93.7813 39.3423C94.1554 39.1482 94.4489 38.8783 94.662 38.5327C94.8798 38.187 94.9911 37.7822 94.9958 37.3182C94.9911 36.8636 94.8822 36.4659 94.6691 36.125C94.4608 35.7841 94.1696 35.5213 93.7955 35.3366C93.4215 35.1473 92.9882 35.0526 92.4958 35.0526C91.9939 35.0526 91.5536 35.1473 91.1748 35.3366C90.8007 35.5213 90.5095 35.7841 90.3012 36.125C90.0929 36.4659 89.9911 36.8636 89.9958 37.3182C89.9911 37.7822 90.0952 38.187 90.3083 38.5327C90.5214 38.8783 90.8149 39.1482 91.189 39.3423C91.5678 39.5365 92.0034 39.6335 92.4958 39.6335ZM102.729 46.0114L102.623 46.7855C102.552 47.3537 102.431 47.9455 102.261 48.5611C102.095 49.1813 101.922 49.7566 101.742 50.2869C101.567 50.8172 101.422 51.2386 101.309 51.5511H99.8031C99.8647 51.2576 99.9499 50.8598 100.059 50.358C100.168 49.8608 100.274 49.3045 100.378 48.6889C100.483 48.0734 100.561 47.446 100.613 46.8068L100.684 46.0114H102.729ZM105.544 45.1591V43.3835L111.83 33.4545H113.229V36.0682H112.341L107.846 43.1847V43.2983H116.461V45.1591H105.544ZM112.441 48V44.6193L112.455 43.8097V33.4545H114.536V48H112.441ZM123.887 48.1989C122.997 48.1989 122.197 48.0284 121.486 47.6875C120.781 47.3419 120.217 46.8684 119.796 46.267C119.375 45.6657 119.15 44.9792 119.121 44.2074H121.252C121.304 44.8324 121.581 45.3461 122.083 45.7486C122.585 46.151 123.186 46.3523 123.887 46.3523C124.446 46.3523 124.94 46.2244 125.371 45.9688C125.807 45.7083 126.148 45.3509 126.394 44.8963C126.645 44.4418 126.77 43.9233 126.77 43.3409C126.77 42.7491 126.643 42.2211 126.387 41.7571C126.131 41.2931 125.778 40.9285 125.329 40.6634C124.884 40.3982 124.372 40.2633 123.795 40.2585C123.354 40.2585 122.911 40.3343 122.466 40.4858C122.021 40.6373 121.661 40.8362 121.387 41.0824L119.377 40.7841L120.194 33.4545H128.191V35.3366H122.019L121.557 39.4062H121.643C121.927 39.1316 122.303 38.902 122.772 38.7173C123.245 38.5327 123.752 38.4403 124.292 38.4403C125.177 38.4403 125.965 38.651 126.657 39.0724C127.353 39.4938 127.9 40.0691 128.297 40.7983C128.7 41.5227 128.899 42.3561 128.894 43.2983C128.899 44.2405 128.686 45.081 128.255 45.8196C127.829 46.5582 127.237 47.1406 126.479 47.5668C125.726 47.9882 124.862 48.1989 123.887 48.1989ZM136.553 48.1989C135.535 48.1989 134.635 48.0237 133.854 47.6733C133.077 47.3229 132.469 46.84 132.029 46.2244C131.588 45.6089 131.371 44.9081 131.375 44.1222C131.371 43.5066 131.496 42.9408 131.752 42.4247C132.012 41.9039 132.365 41.4706 132.81 41.125C133.255 40.7746 133.752 40.5521 134.301 40.4574V40.3722C133.577 40.197 132.997 39.8087 132.561 39.2074C132.126 38.6061 131.91 37.9148 131.915 37.1335C131.91 36.3902 132.107 35.7273 132.505 35.1449C132.907 34.5578 133.459 34.0961 134.159 33.7599C134.86 33.4238 135.658 33.2557 136.553 33.2557C137.438 33.2557 138.229 33.4261 138.925 33.767C139.626 34.1032 140.177 34.5649 140.58 35.152C140.982 35.7344 141.186 36.3949 141.191 37.1335C141.186 37.9148 140.963 38.6061 140.523 39.2074C140.083 39.8087 139.51 40.197 138.804 40.3722V40.4574C139.349 40.5521 139.839 40.7746 140.274 41.125C140.715 41.4706 141.065 41.9039 141.326 42.4247C141.591 42.9408 141.726 43.5066 141.73 44.1222C141.726 44.9081 141.503 45.6089 141.063 46.2244C140.622 46.84 140.012 47.3229 139.23 47.6733C138.454 48.0237 137.561 48.1989 136.553 48.1989ZM136.553 46.402C137.154 46.402 137.675 46.3026 138.115 46.1037C138.556 45.9001 138.897 45.6184 139.138 45.2585C139.38 44.8939 139.503 44.4678 139.507 43.9801C139.503 43.4735 139.37 43.026 139.11 42.6378C138.854 42.2495 138.506 41.9441 138.066 41.7216C137.625 41.4991 137.121 41.3878 136.553 41.3878C135.98 41.3878 135.471 41.4991 135.026 41.7216C134.581 41.9441 134.23 42.2495 133.975 42.6378C133.719 43.026 133.594 43.4735 133.598 43.9801C133.594 44.4678 133.71 44.8939 133.946 45.2585C134.188 45.6184 134.531 45.9001 134.976 46.1037C135.421 46.3026 135.947 46.402 136.553 46.402ZM136.553 39.6335C137.036 39.6335 137.464 39.5365 137.838 39.3423C138.212 39.1482 138.506 38.8783 138.719 38.5327C138.937 38.187 139.048 37.7822 139.053 37.3182C139.048 36.8636 138.939 36.4659 138.726 36.125C138.518 35.7841 138.227 35.5213 137.853 35.3366C137.478 35.1473 137.045 35.0526 136.553 35.0526C136.051 35.0526 135.611 35.1473 135.232 35.3366C134.858 35.5213 134.567 35.7841 134.358 36.125C134.15 36.4659 134.048 36.8636 134.053 37.3182C134.048 37.7822 134.152 38.187 134.365 38.5327C134.578 38.8783 134.872 39.1482 135.246 39.3423C135.625 39.5365 136.06 39.6335 136.553 39.6335Z" fill="#151B26"/>
<path d="M150.592 37.5898L155.182 42.1698L159.772 37.5898L161.182 38.9998L155.182 44.9998L149.182 38.9998L150.592 37.5898Z" fill="#FF4D49"/>
<path d="M170.881 45.1193C170.296 45.1193 169.778 45.0156 169.33 44.8082C168.884 44.598 168.536 44.3097 168.286 43.9432C168.036 43.5739 167.912 43.1534 167.915 42.6818C167.912 42.3125 167.984 41.9716 168.132 41.6591C168.28 41.3437 168.482 41.081 168.737 40.8707C168.996 40.6577 169.284 40.5227 169.602 40.4659V40.4148C169.185 40.3068 168.852 40.0724 168.605 39.7116C168.358 39.348 168.236 38.9347 168.239 38.4716C168.236 38.0284 168.348 37.6321 168.575 37.2827C168.803 36.9332 169.115 36.6577 169.513 36.456C169.913 36.2543 170.369 36.1534 170.881 36.1534C171.386 36.1534 171.838 36.2543 172.236 36.456C172.634 36.6577 172.946 36.9332 173.173 37.2827C173.403 37.6321 173.52 38.0284 173.523 38.4716C173.52 38.9347 173.394 39.348 173.144 39.7116C172.896 40.0724 172.568 40.3068 172.159 40.4148V40.4659C172.474 40.5227 172.759 40.6577 173.011 40.8707C173.264 41.081 173.466 41.3437 173.617 41.6591C173.767 41.9716 173.844 42.3125 173.847 42.6818C173.844 43.1534 173.716 43.5739 173.463 43.9432C173.213 44.3097 172.865 44.598 172.419 44.8082C171.976 45.0156 171.463 45.1193 170.881 45.1193ZM170.881 44.1818C171.276 44.1818 171.617 44.1179 171.903 43.9901C172.19 43.8622 172.412 43.6818 172.568 43.4489C172.724 43.2159 172.804 42.9432 172.807 42.6307C172.804 42.3011 172.719 42.0099 172.551 41.7571C172.384 41.5043 172.155 41.3054 171.865 41.1605C171.578 41.0156 171.25 40.9432 170.881 40.9432C170.509 40.9432 170.176 41.0156 169.884 41.1605C169.594 41.3054 169.365 41.5043 169.198 41.7571C169.033 42.0099 168.952 42.3011 168.955 42.6307C168.952 42.9432 169.027 43.2159 169.18 43.4489C169.337 43.6818 169.56 43.8622 169.849 43.9901C170.139 44.1179 170.483 44.1818 170.881 44.1818ZM170.881 40.0398C171.193 40.0398 171.47 39.9773 171.712 39.8523C171.956 39.7273 172.148 39.5526 172.287 39.3281C172.426 39.1037 172.497 38.8409 172.5 38.5398C172.497 38.2443 172.428 37.9872 172.291 37.7685C172.155 37.5469 171.966 37.3764 171.724 37.2571C171.483 37.1349 171.202 37.0739 170.881 37.0739C170.554 37.0739 170.269 37.1349 170.024 37.2571C169.78 37.3764 169.591 37.5469 169.457 37.7685C169.324 37.9872 169.259 38.2443 169.261 38.5398C169.259 38.8409 169.325 39.1037 169.462 39.3281C169.601 39.5526 169.793 39.7273 170.037 39.8523C170.281 39.9773 170.563 40.0398 170.881 40.0398ZM176.36 45.0682C176.15 45.0682 175.97 44.9929 175.819 44.8423C175.669 44.6918 175.593 44.5114 175.593 44.3011C175.593 44.0909 175.669 43.9105 175.819 43.7599C175.97 43.6094 176.15 43.5341 176.36 43.5341C176.571 43.5341 176.751 43.6094 176.901 43.7599C177.052 43.9105 177.127 44.0909 177.127 44.3011C177.127 44.4403 177.092 44.5682 177.021 44.6847C176.953 44.8011 176.86 44.8949 176.744 44.9659C176.63 45.0341 176.502 45.0682 176.36 45.0682ZM181.34 36.2727V45H180.283V37.3807H180.232L178.102 38.7955V37.7216L180.283 36.2727H181.34ZM187.097 45.1193C186.455 45.1193 185.908 44.9446 185.456 44.5952C185.004 44.2429 184.659 43.733 184.421 43.0653C184.182 42.3949 184.063 41.5852 184.063 40.6364C184.063 39.6932 184.182 38.8878 184.421 38.2202C184.662 37.5497 185.009 37.0384 185.46 36.6861C185.915 36.331 186.46 36.1534 187.097 36.1534C187.733 36.1534 188.277 36.331 188.729 36.6861C189.183 37.0384 189.53 37.5497 189.769 38.2202C190.01 38.8878 190.131 39.6932 190.131 40.6364C190.131 41.5852 190.012 42.3949 189.773 43.0653C189.534 43.733 189.189 44.2429 188.737 44.5952C188.286 44.9446 187.739 45.1193 187.097 45.1193ZM187.097 44.1818C187.733 44.1818 188.227 43.875 188.58 43.2614C188.932 42.6477 189.108 41.7727 189.108 40.6364C189.108 39.8807 189.027 39.2372 188.865 38.706C188.706 38.1747 188.476 37.7699 188.175 37.4915C187.877 37.2131 187.517 37.0739 187.097 37.0739C186.466 37.0739 185.973 37.3849 185.618 38.0071C185.263 38.6264 185.085 39.5028 185.085 40.6364C185.085 41.392 185.165 42.0341 185.324 42.5625C185.483 43.0909 185.712 43.4929 186.01 43.7685C186.311 44.044 186.673 44.1818 187.097 44.1818ZM196.599 43.3636V42.9034C196.599 42.5852 196.664 42.294 196.795 42.0298C196.929 41.7628 197.122 41.5497 197.375 41.3906C197.63 41.2287 197.94 41.1477 198.304 41.1477C198.673 41.1477 198.983 41.2287 199.233 41.3906C199.483 41.5497 199.671 41.7628 199.799 42.0298C199.927 42.294 199.991 42.5852 199.991 42.9034V43.3636C199.991 43.6818 199.926 43.9744 199.795 44.2415C199.667 44.5057 199.477 44.7187 199.224 44.8807C198.974 45.0398 198.667 45.1193 198.304 45.1193C197.934 45.1193 197.623 45.0398 197.37 44.8807C197.117 44.7187 196.926 44.5057 196.795 44.2415C196.664 43.9744 196.599 43.6818 196.599 43.3636ZM197.468 42.9034V43.3636C197.468 43.6278 197.531 43.8651 197.656 44.0753C197.781 44.2827 197.997 44.3864 198.304 44.3864C198.602 44.3864 198.812 44.2827 198.934 44.0753C199.059 43.8651 199.122 43.6278 199.122 43.3636V42.9034C199.122 42.6392 199.062 42.4034 198.943 42.196C198.823 41.9858 198.61 41.8807 198.304 41.8807C198.005 41.8807 197.791 41.9858 197.66 42.196C197.532 42.4034 197.468 42.6392 197.468 42.9034ZM192.252 38.3693V37.9091C192.252 37.5909 192.318 37.2997 192.448 37.0355C192.582 36.7685 192.775 36.5554 193.028 36.3963C193.284 36.2344 193.593 36.1534 193.957 36.1534C194.326 36.1534 194.636 36.2344 194.886 36.3963C195.136 36.5554 195.325 36.7685 195.453 37.0355C195.581 37.2997 195.644 37.5909 195.644 37.9091V38.3693C195.644 38.6875 195.579 38.9801 195.448 39.2472C195.321 39.5114 195.13 39.7244 194.877 39.8864C194.627 40.0455 194.321 40.125 193.957 40.125C193.588 40.125 193.277 40.0455 193.024 39.8864C192.771 39.7244 192.579 39.5114 192.448 39.2472C192.318 38.9801 192.252 38.6875 192.252 38.3693ZM193.122 37.9091V38.3693C193.122 38.6335 193.184 38.8707 193.309 39.081C193.434 39.2884 193.65 39.392 193.957 39.392C194.255 39.392 194.465 39.2884 194.588 39.081C194.713 38.8707 194.775 38.6335 194.775 38.3693V37.9091C194.775 37.6449 194.715 37.4091 194.596 37.2017C194.477 36.9915 194.264 36.8864 193.957 36.8864C193.659 36.8864 193.444 36.9915 193.313 37.2017C193.186 37.4091 193.122 37.6449 193.122 37.9091ZM192.576 45L198.576 36.2727H199.548L193.548 45H192.576Z" fill="#FF4D49"/>
<path d="M94.1592 59.2727V68H93.1364L88.3807 61.1477H88.2955V68H87.2387V59.2727H88.2614L93.0342 66.142H93.1194V59.2727H94.1592ZM99.2818 68.1364C98.6511 68.1364 98.1071 67.9972 97.6497 67.7188C97.1952 67.4375 96.8443 67.0455 96.5972 66.5426C96.3528 66.0369 96.2307 65.4489 96.2307 64.7784C96.2307 64.108 96.3528 63.517 96.5972 63.0057C96.8443 62.4915 97.1881 62.0909 97.6284 61.804C98.0716 61.5142 98.5886 61.3693 99.1795 61.3693C99.5204 61.3693 99.8571 61.4261 100.189 61.5398C100.522 61.6534 100.824 61.8381 101.097 62.0938C101.37 62.3466 101.587 62.6818 101.749 63.0994C101.911 63.517 101.992 64.0312 101.992 64.642V65.0682H96.9466V64.1989H100.969C100.969 63.8295 100.895 63.5 100.748 63.2102C100.603 62.9205 100.395 62.6918 100.126 62.5241C99.8585 62.3565 99.5432 62.2727 99.1795 62.2727C98.779 62.2727 98.4324 62.3722 98.1398 62.571C97.85 62.767 97.627 63.0227 97.4707 63.3381C97.3145 63.6534 97.2364 63.9915 97.2364 64.3523V64.9318C97.2364 65.4261 97.3216 65.8452 97.492 66.1889C97.6653 66.5298 97.9054 66.7898 98.2122 66.9688C98.519 67.1449 98.8756 67.233 99.2818 67.233C99.546 67.233 99.7847 67.196 99.9977 67.1222C100.214 67.0455 100.4 66.9318 100.556 66.7812C100.712 66.6278 100.833 66.4375 100.918 66.2102L101.89 66.483C101.787 66.8125 101.616 67.1023 101.374 67.3523C101.133 67.5994 100.834 67.7926 100.479 67.9318C100.124 68.0682 99.725 68.1364 99.2818 68.1364ZM105.405 68L103.411 61.4545H104.467L105.882 66.4659H105.95L107.348 61.4545H108.422L109.803 66.4489H109.871L111.286 61.4545H112.342L110.348 68H109.359L107.928 62.9716H107.825L106.393 68H105.405ZM125.006 62H123.949C123.887 61.696 123.777 61.429 123.621 61.1989C123.468 60.9688 123.28 60.7756 123.059 60.6193C122.84 60.4602 122.597 60.3409 122.33 60.2614C122.063 60.1818 121.784 60.142 121.495 60.142C120.966 60.142 120.487 60.2756 120.059 60.5426C119.632 60.8097 119.293 61.2031 119.04 61.723C118.79 62.2429 118.665 62.8807 118.665 63.6364C118.665 64.392 118.79 65.0298 119.04 65.5497C119.293 66.0696 119.632 66.4631 120.059 66.7301C120.487 66.9972 120.966 67.1307 121.495 67.1307C121.784 67.1307 122.063 67.0909 122.33 67.0114C122.597 66.9318 122.84 66.8139 123.059 66.6577C123.28 66.4986 123.468 66.304 123.621 66.0739C123.777 65.8409 123.887 65.5739 123.949 65.2727H125.006C124.926 65.7187 124.782 66.1179 124.571 66.4702C124.361 66.8224 124.1 67.1222 123.787 67.3693C123.475 67.6136 123.124 67.7997 122.735 67.9276C122.348 68.0554 121.935 68.1193 121.495 68.1193C120.75 68.1193 120.088 67.9375 119.509 67.5739C118.929 67.2102 118.473 66.6932 118.141 66.0227C117.809 65.3523 117.642 64.5568 117.642 63.6364C117.642 62.7159 117.809 61.9205 118.141 61.25C118.473 60.5795 118.929 60.0625 119.509 59.6989C120.088 59.3352 120.75 59.1534 121.495 59.1534C121.935 59.1534 122.348 59.2173 122.735 59.3452C123.124 59.473 123.475 59.6605 123.787 59.9077C124.1 60.152 124.361 60.4503 124.571 60.8026C124.782 61.152 124.926 61.5511 125.006 62ZM131.102 65.3239V61.4545H132.108V68H131.102V66.892H131.034C130.881 67.2244 130.642 67.5071 130.318 67.7401C129.994 67.9702 129.585 68.0852 129.091 68.0852C128.682 68.0852 128.318 67.9957 128 67.8168C127.682 67.6349 127.432 67.3622 127.25 66.9986C127.068 66.6321 126.977 66.1705 126.977 65.6136V61.4545H127.983V65.5455C127.983 66.0227 128.117 66.4034 128.384 66.6875C128.653 66.9716 128.997 67.1136 129.415 67.1136C129.665 67.1136 129.919 67.0497 130.178 66.9219C130.439 66.794 130.658 66.598 130.834 66.3338C131.013 66.0696 131.102 65.733 131.102 65.3239ZM138.986 62.9205L138.083 63.1761C138.026 63.0256 137.942 62.8793 137.832 62.7372C137.724 62.5923 137.576 62.473 137.388 62.3793C137.201 62.2855 136.961 62.2386 136.668 62.2386C136.268 62.2386 135.934 62.331 135.667 62.5156C135.403 62.6974 135.27 62.929 135.27 63.2102C135.27 63.4602 135.361 63.6577 135.543 63.8026C135.725 63.9474 136.009 64.0682 136.395 64.1648L137.367 64.4034C137.952 64.5455 138.388 64.7628 138.675 65.0554C138.962 65.3452 139.106 65.7187 139.106 66.1761C139.106 66.5511 138.998 66.8864 138.782 67.1818C138.569 67.4773 138.27 67.7102 137.887 67.8807C137.503 68.0511 137.057 68.1364 136.549 68.1364C135.881 68.1364 135.329 67.9915 134.891 67.7017C134.454 67.4119 134.177 66.9886 134.06 66.4318L135.015 66.1932C135.106 66.5455 135.278 66.8097 135.53 66.9858C135.786 67.1619 136.12 67.25 136.532 67.25C137.001 67.25 137.373 67.1506 137.648 66.9517C137.927 66.75 138.066 66.5085 138.066 66.2273C138.066 66 137.986 65.8097 137.827 65.6562C137.668 65.5 137.424 65.3835 137.094 65.3068L136.003 65.0511C135.404 64.9091 134.964 64.6889 134.682 64.3906C134.404 64.0895 134.265 63.7131 134.265 63.2614C134.265 62.892 134.368 62.5653 134.576 62.2812C134.786 61.9972 135.072 61.7741 135.432 61.6122C135.796 61.4503 136.208 61.3693 136.668 61.3693C137.316 61.3693 137.824 61.5114 138.194 61.7955C138.566 62.0795 138.83 62.4545 138.986 62.9205ZM143.866 61.4545V62.3068H140.474V61.4545H143.866ZM141.463 59.8864H142.468V66.125C142.468 66.4091 142.51 66.6222 142.592 66.7642C142.677 66.9034 142.785 66.9972 142.916 67.0455C143.049 67.0909 143.19 67.1136 143.338 67.1136C143.449 67.1136 143.539 67.108 143.61 67.0966C143.681 67.0824 143.738 67.071 143.781 67.0625L143.985 67.9659C143.917 67.9915 143.822 68.017 143.7 68.0426C143.578 68.071 143.423 68.0852 143.235 68.0852C142.951 68.0852 142.673 68.0241 142.4 67.902C142.13 67.7798 141.906 67.5938 141.727 67.3438C141.551 67.0938 141.463 66.7784 141.463 66.3977V59.8864ZM148.368 68.1364C147.777 68.1364 147.258 67.9957 146.812 67.7145C146.369 67.4332 146.023 67.0398 145.773 66.5341C145.525 66.0284 145.402 65.4375 145.402 64.7614C145.402 64.0795 145.525 63.4844 145.773 62.9759C146.023 62.4673 146.369 62.0724 146.812 61.7912C147.258 61.5099 147.777 61.3693 148.368 61.3693C148.959 61.3693 149.476 61.5099 149.919 61.7912C150.365 62.0724 150.711 62.4673 150.959 62.9759C151.209 63.4844 151.334 64.0795 151.334 64.7614C151.334 65.4375 151.209 66.0284 150.959 66.5341C150.711 67.0398 150.365 67.4332 149.919 67.7145C149.476 67.9957 148.959 68.1364 148.368 68.1364ZM148.368 67.233C148.817 67.233 149.186 67.1179 149.476 66.8878C149.765 66.6577 149.98 66.3551 150.119 65.9801C150.258 65.6051 150.328 65.1989 150.328 64.7614C150.328 64.3239 150.258 63.9162 150.119 63.5384C149.98 63.1605 149.765 62.8551 149.476 62.6222C149.186 62.3892 148.817 62.2727 148.368 62.2727C147.919 62.2727 147.549 62.3892 147.26 62.6222C146.97 62.8551 146.755 63.1605 146.616 63.5384C146.477 63.9162 146.407 64.3239 146.407 64.7614C146.407 65.1989 146.477 65.6051 146.616 65.9801C146.755 66.3551 146.97 66.6577 147.26 66.8878C147.549 67.1179 147.919 67.233 148.368 67.233ZM153.269 68V61.4545H154.24V62.4773H154.326C154.462 62.1278 154.682 61.8565 154.986 61.6634C155.29 61.4673 155.655 61.3693 156.081 61.3693C156.513 61.3693 156.872 61.4673 157.159 61.6634C157.449 61.8565 157.675 62.1278 157.837 62.4773H157.905C158.073 62.1392 158.324 61.8707 158.659 61.6719C158.995 61.4702 159.397 61.3693 159.865 61.3693C160.451 61.3693 160.929 61.5526 161.301 61.919C161.674 62.2827 161.86 62.8494 161.86 63.6193V68H160.854V63.6193C160.854 63.1364 160.722 62.7912 160.458 62.5838C160.193 62.3764 159.882 62.2727 159.524 62.2727C159.064 62.2727 158.708 62.4119 158.455 62.6903C158.202 62.9659 158.076 63.3153 158.076 63.7386V68H157.053V63.517C157.053 63.1449 156.932 62.8452 156.691 62.6179C156.449 62.3878 156.138 62.2727 155.757 62.2727C155.496 62.2727 155.252 62.3423 155.024 62.4815C154.8 62.6207 154.618 62.8139 154.479 63.0611C154.343 63.3054 154.274 63.5881 154.274 63.9091V68H153.269ZM166.843 68.1364C166.212 68.1364 165.668 67.9972 165.211 67.7188C164.756 67.4375 164.405 67.0455 164.158 66.5426C163.914 66.0369 163.792 65.4489 163.792 64.7784C163.792 64.108 163.914 63.517 164.158 63.0057C164.405 62.4915 164.749 62.0909 165.189 61.804C165.633 61.5142 166.15 61.3693 166.74 61.3693C167.081 61.3693 167.418 61.4261 167.75 61.5398C168.083 61.6534 168.385 61.8381 168.658 62.0938C168.931 62.3466 169.148 62.6818 169.31 63.0994C169.472 63.517 169.553 64.0312 169.553 64.642V65.0682H164.508V64.1989H168.53C168.53 63.8295 168.456 63.5 168.309 63.2102C168.164 62.9205 167.956 62.6918 167.687 62.5241C167.419 62.3565 167.104 62.2727 166.74 62.2727C166.34 62.2727 165.993 62.3722 165.701 62.571C165.411 62.767 165.188 63.0227 165.032 63.3381C164.875 63.6534 164.797 63.9915 164.797 64.3523V64.9318C164.797 65.4261 164.883 65.8452 165.053 66.1889C165.226 66.5298 165.466 66.7898 165.773 66.9688C166.08 67.1449 166.437 67.233 166.843 67.233C167.107 67.233 167.346 67.196 167.559 67.1222C167.775 67.0455 167.961 66.9318 168.117 66.7812C168.273 66.6278 168.394 66.4375 168.479 66.2102L169.451 66.483C169.348 66.8125 169.177 67.1023 168.935 67.3523C168.694 67.5994 168.395 67.7926 168.04 67.9318C167.685 68.0682 167.286 68.1364 166.843 68.1364ZM171.483 68V61.4545H172.454V62.4432H172.523C172.642 62.1193 172.858 61.8565 173.17 61.6548C173.483 61.4531 173.835 61.3523 174.227 61.3523C174.301 61.3523 174.393 61.3537 174.504 61.3565C174.615 61.3594 174.699 61.3636 174.756 61.3693V62.392C174.721 62.3835 174.643 62.3707 174.521 62.3537C174.402 62.3338 174.275 62.3239 174.142 62.3239C173.824 62.3239 173.54 62.3906 173.29 62.5241C173.042 62.6548 172.846 62.8366 172.702 63.0696C172.56 63.2997 172.488 63.5625 172.488 63.858V68H171.483ZM180.984 62.9205L180.081 63.1761C180.024 63.0256 179.94 62.8793 179.829 62.7372C179.721 62.5923 179.574 62.473 179.386 62.3793C179.199 62.2855 178.958 62.2386 178.666 62.2386C178.265 62.2386 177.931 62.331 177.664 62.5156C177.4 62.6974 177.268 62.929 177.268 63.2102C177.268 63.4602 177.359 63.6577 177.541 63.8026C177.723 63.9474 178.007 64.0682 178.393 64.1648L179.365 64.4034C179.95 64.5455 180.386 64.7628 180.673 65.0554C180.96 65.3452 181.103 65.7187 181.103 66.1761C181.103 66.5511 180.995 66.8864 180.779 67.1818C180.566 67.4773 180.268 67.7102 179.885 67.8807C179.501 68.0511 179.055 68.1364 178.547 68.1364C177.879 68.1364 177.326 67.9915 176.889 67.7017C176.451 67.4119 176.174 66.9886 176.058 66.4318L177.012 66.1932C177.103 66.5455 177.275 66.8097 177.528 66.9858C177.784 67.1619 178.118 67.25 178.529 67.25C178.998 67.25 179.37 67.1506 179.646 66.9517C179.924 66.75 180.064 66.5085 180.064 66.2273C180.064 66 179.984 65.8097 179.825 65.6562C179.666 65.5 179.422 65.3835 179.092 65.3068L178.001 65.0511C177.402 64.9091 176.961 64.6889 176.68 64.3906C176.402 64.0895 176.262 63.7131 176.262 63.2614C176.262 62.892 176.366 62.5653 176.574 62.2812C176.784 61.9972 177.069 61.7741 177.43 61.6122C177.794 61.4503 178.206 61.3693 178.666 61.3693C179.314 61.3693 179.822 61.5114 180.191 61.7955C180.564 62.0795 180.828 62.4545 180.984 62.9205Z" fill="#4C4E64" fill-opacity="0.6"/>
</g>
<defs>
<filter id="filter0_d_1408_8716" x="0.181885" y="0" width="278.715" height="100" filterUnits="userSpaceOnUse" color-interpolation-filters="sRGB">
<feFlood flood-opacity="0" result="BackgroundImageFix"/>
<feColorMatrix in="SourceAlpha" type="matrix" values="0 0 0 0 0 0 0 0 0 0 0 0 0 0 0 0 0 0 127 0" result="hardAlpha"/>
<feOffset dy="2"/>
<feGaussianBlur stdDeviation="5"/>
<feColorMatrix type="matrix" values="0 0 0 0 0.298039 0 0 0 0 0.305882 0 0 0 0 0.392157 0 0 0 0.22 0"/>
<feBlend mode="normal" in2="BackgroundImageFix" result="effect1_dropShadow_1408_8716"/>
<feBlend mode="normal" in="SourceGraphic" in2="effect1_dropShadow_1408_8716" result="shape"/>
</filter>
</defs>
</svg>
