<svg width="276" height="132" viewBox="0 0 276 132" fill="none" xmlns="http://www.w3.org/2000/svg">
<g clip-path="url(#clip0_1408_9140)" filter="url(#filter0_d_1408_9140)">
<g filter="url(#filter1_d_1408_9140)">
<rect x="10" y="6" width="255.258" height="112" rx="6" fill="white"/>
</g>
<circle cx="209" cy="62" r="28" fill="#ECF2FF"/>
<path fill-rule="evenodd" clip-rule="evenodd" d="M209 53C209.552 53 210 53.4477 210 54L210.001 54.0903C212.194 54.4914 213.889 56.1853 213.995 58.2915L214 58.5H212C212 57.4338 211.178 56.491 210.001 56.1428L210.001 61.0903C212.266 61.5046 214 63.2978 214 65.5C214 67.7022 212.266 69.4954 210.001 69.9097L210 70C210 70.5523 209.552 71 209 71C208.448 71 208 70.5523 208 70L208 69.9099C205.807 69.5091 204.111 67.815 204.005 65.7085L204 65.5H206C206 66.5665 206.823 67.5095 208 67.8575L208 62.9099C205.735 62.4959 204 60.7025 204 58.5C204 56.2975 205.735 54.5041 208 54.0901L208 54C208 53.4477 208.448 53 209 53ZM210.001 63.1428L210.001 67.8572C211.178 67.509 212 66.5662 212 65.5C212 64.4337 211.178 63.491 210.001 63.1428ZM206 58.5C206 59.5666 206.823 60.5096 208 60.8575L208 56.1425C206.823 56.4905 206 57.4335 206 58.5Z" fill="#1A7DC0"/>
<g clip-path="url(#clip1_1408_9140)">
<path d="M38.6761 43.9119V42.8182H46.3125V43.9119H43.1108V53H41.8778V43.9119H38.6761ZM50.0511 53.1591C49.3617 53.1591 48.7569 52.995 48.2365 52.6669C47.7195 52.3388 47.3151 51.8797 47.0234 51.2898C46.7351 50.6998 46.5909 50.0104 46.5909 49.2216C46.5909 48.4261 46.7351 47.7318 47.0234 47.1385C47.3151 46.5452 47.7195 46.0845 48.2365 45.7564C48.7569 45.4283 49.3617 45.2642 50.0511 45.2642C50.7405 45.2642 51.3438 45.4283 51.8608 45.7564C52.3812 46.0845 52.7855 46.5452 53.0739 47.1385C53.3655 47.7318 53.5114 48.4261 53.5114 49.2216C53.5114 50.0104 53.3655 50.6998 53.0739 51.2898C52.7855 51.8797 52.3812 52.3388 51.8608 52.6669C51.3438 52.995 50.7405 53.1591 50.0511 53.1591ZM50.0511 52.1051C50.5748 52.1051 51.0057 51.9709 51.3438 51.7024C51.6818 51.4339 51.9321 51.081 52.0945 50.6435C52.2569 50.206 52.3381 49.732 52.3381 49.2216C52.3381 48.7112 52.2569 48.2356 52.0945 47.7947C51.9321 47.3539 51.6818 46.9976 51.3438 46.7259C51.0057 46.4541 50.5748 46.3182 50.0511 46.3182C49.5275 46.3182 49.0966 46.4541 48.7585 46.7259C48.4205 46.9976 48.1702 47.3539 48.0078 47.7947C47.8454 48.2356 47.7642 48.7112 47.7642 49.2216C47.7642 49.732 47.8454 50.206 48.0078 50.6435C48.1702 51.081 48.4205 51.4339 48.7585 51.7024C49.0966 51.9709 49.5275 52.1051 50.0511 52.1051ZM58.6234 45.3636V46.358H54.666V45.3636H58.6234ZM55.8194 43.5341H56.9927V50.8125C56.9927 51.1439 57.0408 51.3925 57.1369 51.5582C57.2363 51.7206 57.3623 51.83 57.5147 51.8864C57.6705 51.9394 57.8346 51.9659 58.0069 51.9659C58.1362 51.9659 58.2422 51.9593 58.3251 51.946C58.408 51.9295 58.4743 51.9162 58.524 51.9062L58.7626 52.9602C58.6831 52.9901 58.572 53.0199 58.4295 53.0497C58.287 53.0829 58.1064 53.0994 57.8876 53.0994C57.5562 53.0994 57.2314 53.0282 56.9132 52.8857C56.5983 52.7431 56.3365 52.526 56.1277 52.2344C55.9222 51.9427 55.8194 51.5748 55.8194 51.1307V43.5341ZM62.6355 53.179C62.1516 53.179 61.7124 53.0878 61.318 52.9055C60.9236 52.7199 60.6104 52.4531 60.3784 52.1051C60.1464 51.7538 60.0304 51.3295 60.0304 50.8324C60.0304 50.3949 60.1165 50.0402 60.2889 49.7685C60.4612 49.4934 60.6916 49.2779 60.9799 49.1222C61.2683 48.9664 61.5865 48.8504 61.9345 48.7741C62.2858 48.6946 62.6388 48.6316 62.9934 48.5852C63.4574 48.5256 63.8336 48.4808 64.122 48.451C64.4136 48.4179 64.6258 48.3632 64.7583 48.2869C64.8942 48.2107 64.9622 48.0781 64.9622 47.8892V47.8494C64.9622 47.3589 64.8279 46.9777 64.5595 46.706C64.2943 46.4342 63.8916 46.2983 63.3514 46.2983C62.7913 46.2983 62.3521 46.4209 62.0339 46.6662C61.7157 46.9115 61.492 47.1733 61.3627 47.4517L60.2491 47.054C60.448 46.59 60.7131 46.2287 61.0446 45.9702C61.3793 45.7083 61.7439 45.526 62.1383 45.4233C62.536 45.3172 62.9271 45.2642 63.3116 45.2642C63.5569 45.2642 63.8386 45.294 64.1568 45.3537C64.4783 45.41 64.7882 45.5277 65.0865 45.7067C65.3881 45.8857 65.6383 46.1558 65.8372 46.517C66.036 46.8783 66.1355 47.3622 66.1355 47.9688V53H64.9622V51.9659H64.9025C64.823 52.1316 64.6904 52.3089 64.5048 52.4979C64.3192 52.6868 64.0723 52.8475 63.764 52.9801C63.4558 53.1127 63.0796 53.179 62.6355 53.179ZM62.8145 52.125C63.2785 52.125 63.6696 52.0339 63.9877 51.8516C64.3092 51.6693 64.5512 51.4339 64.7136 51.1456C64.8793 50.8572 64.9622 50.554 64.9622 50.2358V49.1619C64.9125 49.2216 64.8031 49.2763 64.6341 49.326C64.4683 49.3724 64.2761 49.4138 64.0574 49.4503C63.8419 49.4834 63.6315 49.5133 63.426 49.5398C63.2238 49.563 63.0597 49.5829 62.9338 49.5994C62.6288 49.6392 62.3438 49.7038 62.0787 49.7933C61.8168 49.8795 61.6047 50.0104 61.4423 50.1861C61.2832 50.3584 61.2037 50.5937 61.2037 50.892C61.2037 51.2997 61.3545 51.608 61.6561 51.8168C61.961 52.0223 62.3471 52.125 62.8145 52.125ZM69.4503 42.8182V53H68.277V42.8182H69.4503ZM75.6958 53V42.8182H79.1362C79.9316 42.8182 80.5846 42.9541 81.095 43.2259C81.6054 43.4943 81.9833 43.8639 82.2285 44.3345C82.4738 44.8052 82.5964 45.3404 82.5964 45.9403C82.5964 46.5402 82.4738 47.0722 82.2285 47.5362C81.9833 48.0002 81.6071 48.3648 81.1 48.63C80.5929 48.8918 79.9449 49.0227 79.1561 49.0227H76.372V47.9091H79.1163C79.6599 47.9091 80.0974 47.8295 80.4288 47.6705C80.7636 47.5114 81.0055 47.286 81.1547 46.9943C81.3071 46.6993 81.3833 46.348 81.3833 45.9403C81.3833 45.5327 81.3071 45.1764 81.1547 44.8714C81.0022 44.5665 80.7586 44.3312 80.4238 44.1655C80.0891 43.9964 79.6466 43.9119 79.0964 43.9119H76.9288V53H75.6958ZM80.4885 48.4261L82.9941 53H81.5623L79.0964 48.4261H80.4885ZM87.6115 53.1591C86.8757 53.1591 86.241 52.9967 85.7074 52.6719C85.1771 52.3438 84.7678 51.8864 84.4794 51.2997C84.1944 50.7098 84.0518 50.0237 84.0518 49.2415C84.0518 48.4593 84.1944 47.7699 84.4794 47.1733C84.7678 46.5734 85.1688 46.1061 85.6825 45.7713C86.1996 45.4332 86.8028 45.2642 87.4922 45.2642C87.8899 45.2642 88.2827 45.3305 88.6705 45.4631C89.0582 45.5956 89.4112 45.8111 89.7294 46.1094C90.0476 46.4044 90.3011 46.7955 90.4901 47.2827C90.679 47.7699 90.7734 48.3698 90.7734 49.0824V49.5795H84.8871V48.5653H89.5803C89.5803 48.1345 89.4941 47.75 89.3217 47.4119C89.1527 47.0739 88.9107 46.8071 88.5959 46.6115C88.2843 46.416 87.9164 46.3182 87.4922 46.3182C87.0249 46.3182 86.6205 46.4342 86.2791 46.6662C85.9411 46.8949 85.6809 47.1932 85.4986 47.5611C85.3163 47.929 85.2251 48.3234 85.2251 48.7443V49.4205C85.2251 49.9972 85.3246 50.486 85.5234 50.8871C85.7256 51.2848 86.0057 51.5881 86.3636 51.7969C86.7216 52.0024 87.1375 52.1051 87.6115 52.1051C87.9197 52.1051 88.1982 52.062 88.4467 51.9759C88.6986 51.8864 88.9157 51.7538 89.098 51.5781C89.2803 51.3991 89.4212 51.1771 89.5206 50.9119L90.6541 51.2301C90.5348 51.6146 90.3343 51.9527 90.0526 52.2443C89.7708 52.5327 89.4228 52.758 89.0085 52.9205C88.5942 53.0795 88.1286 53.1591 87.6115 53.1591ZM98.5701 45.3636L95.7463 53H94.5531L91.7292 45.3636H93.002L95.1099 51.4489H95.1895L97.2974 45.3636H98.5701ZM103.047 53.1591C102.311 53.1591 101.677 52.9967 101.143 52.6719C100.613 52.3438 100.203 51.8864 99.915 51.2997C99.6299 50.7098 99.4874 50.0237 99.4874 49.2415C99.4874 48.4593 99.6299 47.7699 99.915 47.1733C100.203 46.5734 100.604 46.1061 101.118 45.7713C101.635 45.4332 102.238 45.2642 102.928 45.2642C103.325 45.2642 103.718 45.3305 104.106 45.4631C104.494 45.5956 104.847 45.8111 105.165 46.1094C105.483 46.4044 105.737 46.7955 105.926 47.2827C106.115 47.7699 106.209 48.3698 106.209 49.0824V49.5795H100.323V48.5653H105.016C105.016 48.1345 104.93 47.75 104.757 47.4119C104.588 47.0739 104.346 46.8071 104.031 46.6115C103.72 46.416 103.352 46.3182 102.928 46.3182C102.46 46.3182 102.056 46.4342 101.715 46.6662C101.377 46.8949 101.116 47.1932 100.934 47.5611C100.752 47.929 100.661 48.3234 100.661 48.7443V49.4205C100.661 49.9972 100.76 50.486 100.959 50.8871C101.161 51.2848 101.441 51.5881 101.799 51.7969C102.157 52.0024 102.573 52.1051 103.047 52.1051C103.355 52.1051 103.634 52.062 103.882 51.9759C104.134 51.8864 104.351 51.7538 104.534 51.5781C104.716 51.3991 104.857 51.1771 104.956 50.9119L106.09 51.2301C105.97 51.6146 105.77 51.9527 105.488 52.2443C105.206 52.5327 104.858 52.758 104.444 52.9205C104.03 53.0795 103.564 53.1591 103.047 53.1591ZM109.167 48.4062V53H107.994V45.3636H109.127V46.5568H109.227C109.406 46.169 109.677 45.8575 110.042 45.6222C110.407 45.3835 110.877 45.2642 111.454 45.2642C111.971 45.2642 112.423 45.3703 112.811 45.5824C113.199 45.7912 113.501 46.1094 113.716 46.5369C113.932 46.9612 114.039 47.4981 114.039 48.1477V53H112.866V48.2273C112.866 47.6274 112.71 47.16 112.399 46.8253C112.087 46.4872 111.66 46.3182 111.116 46.3182C110.741 46.3182 110.407 46.3994 110.112 46.5618C109.82 46.7242 109.59 46.9612 109.421 47.2727C109.252 47.5843 109.167 47.9621 109.167 48.4062ZM120.996 49.8778V45.3636H122.169V53H120.996V51.7074H120.916C120.737 52.0952 120.459 52.425 120.081 52.6967C119.703 52.9652 119.226 53.0994 118.649 53.0994C118.172 53.0994 117.748 52.995 117.376 52.7862C117.005 52.5741 116.714 52.2559 116.501 51.8317C116.289 51.4041 116.183 50.8655 116.183 50.2159V45.3636H117.357V50.1364C117.357 50.6932 117.512 51.1373 117.824 51.4688C118.139 51.8002 118.54 51.9659 119.027 51.9659C119.319 51.9659 119.615 51.8913 119.917 51.7422C120.222 51.593 120.477 51.3643 120.683 51.0561C120.891 50.7479 120.996 50.3551 120.996 49.8778ZM127.52 53.1591C126.784 53.1591 126.149 52.9967 125.616 52.6719C125.085 52.3438 124.676 51.8864 124.388 51.2997C124.103 50.7098 123.96 50.0237 123.96 49.2415C123.96 48.4593 124.103 47.7699 124.388 47.1733C124.676 46.5734 125.077 46.1061 125.591 45.7713C126.108 45.4332 126.711 45.2642 127.4 45.2642C127.798 45.2642 128.191 45.3305 128.579 45.4631C128.966 45.5956 129.319 45.8111 129.638 46.1094C129.956 46.4044 130.209 46.7955 130.398 47.2827C130.587 47.7699 130.682 48.3698 130.682 49.0824V49.5795H124.795V48.5653H129.488C129.488 48.1345 129.402 47.75 129.23 47.4119C129.061 47.0739 128.819 46.8071 128.504 46.6115C128.193 46.416 127.825 46.3182 127.4 46.3182C126.933 46.3182 126.529 46.4342 126.187 46.6662C125.849 46.8949 125.589 47.1932 125.407 47.5611C125.224 47.929 125.133 48.3234 125.133 48.7443V49.4205C125.133 49.9972 125.233 50.486 125.432 50.8871C125.634 51.2848 125.914 51.5881 126.272 51.7969C126.63 52.0024 127.046 52.1051 127.52 52.1051C127.828 52.1051 128.106 52.062 128.355 51.9759C128.607 51.8864 128.824 51.7538 129.006 51.5781C129.189 51.3991 129.329 51.1771 129.429 50.9119L130.562 51.2301C130.443 51.6146 130.242 51.9527 129.961 52.2443C129.679 52.5327 129.331 52.758 128.917 52.9205C128.502 53.0795 128.037 53.1591 127.52 53.1591Z" fill="#5A607F"/>
<path d="M44.0057 66.3636V78H41.5455V68.6989H41.4773L38.8125 70.3693V68.1875L41.6932 66.3636H44.0057ZM51.3338 78.2557C50.3565 78.2519 49.5156 78.0114 48.8111 77.5341C48.1103 77.0568 47.5705 76.3655 47.1918 75.4602C46.8168 74.5549 46.6312 73.4659 46.6349 72.1932C46.6349 70.9242 46.8224 69.8428 47.1974 68.9489C47.5762 68.0549 48.116 67.375 48.8168 66.9091C49.5213 66.4394 50.3603 66.2045 51.3338 66.2045C52.3073 66.2045 53.1444 66.4394 53.8452 66.9091C54.5497 67.3788 55.0914 68.0606 55.4702 68.9545C55.849 69.8447 56.0365 70.9242 56.0327 72.1932C56.0327 73.4697 55.8433 74.5606 55.4645 75.4659C55.0895 76.3712 54.5516 77.0625 53.8509 77.5398C53.1501 78.017 52.3111 78.2557 51.3338 78.2557ZM51.3338 76.2159C52.0005 76.2159 52.5327 75.8807 52.9304 75.2102C53.3281 74.5398 53.5251 73.5341 53.5213 72.1932C53.5213 71.3106 53.4304 70.5758 53.2486 69.9886C53.0705 69.4015 52.8168 68.9602 52.4872 68.6648C52.1615 68.3693 51.777 68.2216 51.3338 68.2216C50.6709 68.2216 50.1406 68.553 49.7429 69.2159C49.3452 69.8788 49.1444 70.8712 49.1406 72.1932C49.1406 73.0871 49.2296 73.8333 49.4077 74.4318C49.5895 75.0265 49.8452 75.4735 50.1747 75.7727C50.5043 76.0682 50.8906 76.2159 51.3338 76.2159ZM62.3494 78.2557C61.3722 78.2519 60.5313 78.0114 59.8267 77.5341C59.1259 77.0568 58.5862 76.3655 58.2074 75.4602C57.8324 74.5549 57.6468 73.4659 57.6506 72.1932C57.6506 70.9242 57.8381 69.8428 58.2131 68.9489C58.5919 68.0549 59.1316 67.375 59.8324 66.9091C60.5369 66.4394 61.3759 66.2045 62.3494 66.2045C63.3229 66.2045 64.16 66.4394 64.8608 66.9091C65.5653 67.3788 66.107 68.0606 66.4858 68.9545C66.8646 69.8447 67.0521 70.9242 67.0483 72.1932C67.0483 73.4697 66.8589 74.5606 66.4801 75.4659C66.1051 76.3712 65.5672 77.0625 64.8665 77.5398C64.1657 78.017 63.3267 78.2557 62.3494 78.2557ZM62.3494 76.2159C63.0161 76.2159 63.5483 75.8807 63.946 75.2102C64.3438 74.5398 64.5407 73.5341 64.5369 72.1932C64.5369 71.3106 64.446 70.5758 64.2642 69.9886C64.0862 69.4015 63.8324 68.9602 63.5028 68.6648C63.1771 68.3693 62.7926 68.2216 62.3494 68.2216C61.6866 68.2216 61.1563 68.553 60.7585 69.2159C60.3608 69.8788 60.16 70.8712 60.1562 72.1932C60.1562 73.0871 60.2453 73.8333 60.4233 74.4318C60.6051 75.0265 60.8608 75.4735 61.1903 75.7727C61.5199 76.0682 61.9062 76.2159 62.3494 76.2159ZM70.9872 76.4091L70.9247 77.0341C70.8755 77.5341 70.7808 78.0322 70.6406 78.5284C70.5043 79.0284 70.3603 79.4811 70.2088 79.8864C70.0611 80.2917 69.9418 80.6098 69.8509 80.8409H68.2827C68.3395 80.6174 68.4171 80.3049 68.5156 79.9034C68.6141 79.5057 68.7069 79.0587 68.794 78.5625C68.8812 78.0663 68.9361 77.5606 68.9588 77.0455L68.9872 76.4091H70.9872ZM77.2713 78.2557C76.294 78.2519 75.4531 78.0114 74.7486 77.5341C74.0478 77.0568 73.508 76.3655 73.1293 75.4602C72.7543 74.5549 72.5687 73.4659 72.5724 72.1932C72.5724 70.9242 72.7599 69.8428 73.1349 68.9489C73.5137 68.0549 74.0535 67.375 74.7543 66.9091C75.4588 66.4394 76.2978 66.2045 77.2713 66.2045C78.2448 66.2045 79.0819 66.4394 79.7827 66.9091C80.4872 67.3788 81.0289 68.0606 81.4077 68.9545C81.7865 69.8447 81.974 70.9242 81.9702 72.1932C81.9702 73.4697 81.7808 74.5606 81.402 75.4659C81.027 76.3712 80.4891 77.0625 79.7884 77.5398C79.0876 78.017 78.2486 78.2557 77.2713 78.2557ZM77.2713 76.2159C77.938 76.2159 78.4702 75.8807 78.8679 75.2102C79.2656 74.5398 79.4626 73.5341 79.4588 72.1932C79.4588 71.3106 79.3679 70.5758 79.1861 69.9886C79.008 69.4015 78.7543 68.9602 78.4247 68.6648C78.099 68.3693 77.7145 68.2216 77.2713 68.2216C76.6084 68.2216 76.0781 68.553 75.6804 69.2159C75.2827 69.8788 75.0819 70.8712 75.0781 72.1932C75.0781 73.0871 75.1671 73.8333 75.3452 74.4318C75.527 75.0265 75.7827 75.4735 76.1122 75.7727C76.4418 76.0682 76.8281 76.2159 77.2713 76.2159ZM88.2869 78.2557C87.3097 78.2519 86.4688 78.0114 85.7642 77.5341C85.0634 77.0568 84.5237 76.3655 84.1449 75.4602C83.7699 74.5549 83.5843 73.4659 83.5881 72.1932C83.5881 70.9242 83.7756 69.8428 84.1506 68.9489C84.5294 68.0549 85.0691 67.375 85.7699 66.9091C86.4744 66.4394 87.3134 66.2045 88.2869 66.2045C89.2604 66.2045 90.0975 66.4394 90.7983 66.9091C91.5028 67.3788 92.0445 68.0606 92.4233 68.9545C92.8021 69.8447 92.9896 70.9242 92.9858 72.1932C92.9858 73.4697 92.7964 74.5606 92.4176 75.4659C92.0426 76.3712 91.5047 77.0625 90.804 77.5398C90.1032 78.017 89.2642 78.2557 88.2869 78.2557ZM88.2869 76.2159C88.9536 76.2159 89.4858 75.8807 89.8835 75.2102C90.2813 74.5398 90.4782 73.5341 90.4744 72.1932C90.4744 71.3106 90.3835 70.5758 90.2017 69.9886C90.0237 69.4015 89.7699 68.9602 89.4403 68.6648C89.1146 68.3693 88.7301 68.2216 88.2869 68.2216C87.6241 68.2216 87.0938 68.553 86.696 69.2159C86.2983 69.8788 86.0975 70.8712 86.0938 72.1932C86.0938 73.0871 86.1828 73.8333 86.3608 74.4318C86.5426 75.0265 86.7983 75.4735 87.1278 75.7727C87.4574 76.0682 87.8438 76.2159 88.2869 76.2159ZM99.3026 78.2557C98.3253 78.2519 97.4844 78.0114 96.7798 77.5341C96.0791 77.0568 95.5393 76.3655 95.1605 75.4602C94.7855 74.5549 94.5999 73.4659 94.6037 72.1932C94.6037 70.9242 94.7912 69.8428 95.1662 68.9489C95.545 68.0549 96.0848 67.375 96.7855 66.9091C97.4901 66.4394 98.3291 66.2045 99.3026 66.2045C100.276 66.2045 101.113 66.4394 101.814 66.9091C102.518 67.3788 103.06 68.0606 103.439 68.9545C103.818 69.8447 104.005 70.9242 104.001 72.1932C104.001 73.4697 103.812 74.5606 103.433 75.4659C103.058 76.3712 102.52 77.0625 101.82 77.5398C101.119 78.017 100.28 78.2557 99.3026 78.2557ZM99.3026 76.2159C99.9692 76.2159 100.501 75.8807 100.899 75.2102C101.297 74.5398 101.494 73.5341 101.49 72.1932C101.49 71.3106 101.399 70.5758 101.217 69.9886C101.039 69.4015 100.786 68.9602 100.456 68.6648C100.13 68.3693 99.7457 68.2216 99.3026 68.2216C98.6397 68.2216 98.1094 68.553 97.7116 69.2159C97.3139 69.8788 97.1132 70.8712 97.1094 72.1932C97.1094 73.0871 97.1984 73.8333 97.3764 74.4318C97.5582 75.0265 97.8139 75.4735 98.1435 75.7727C98.473 76.0682 98.8594 76.2159 99.3026 76.2159ZM111.834 66.3636L114.18 70.3295H114.271L116.629 66.3636H119.408L115.857 72.1818L119.487 78H116.658L114.271 74.0284H114.18L111.794 78H108.976L112.618 72.1818L109.044 66.3636H111.834ZM122.97 78H120.334L124.351 66.3636H127.521L131.533 78H128.896L125.982 69.0227H125.891L122.97 78ZM122.805 73.4261H129.033V75.3466H122.805V73.4261ZM132.933 78V66.3636H140.638V68.392H135.393V71.1648H140.126V73.1932H135.393V78H132.933Z" fill="#131523"/>
<path fill-rule="evenodd" clip-rule="evenodd" d="M167.79 70.3871L167.707 70.2929L162.707 65.2929C162.347 64.9324 161.779 64.9047 161.387 65.2097L161.293 65.2929L156.293 70.2929C155.902 70.6834 155.902 71.3166 156.293 71.7071C156.653 72.0676 157.221 72.0953 157.613 71.7903L157.707 71.7071L161.001 68.414L161 79C161 79.5523 161.448 80 162 80C162.552 80 163 79.5523 163 79L163.001 68.416L166.293 71.7071C166.653 72.0676 167.221 72.0953 167.613 71.7903L167.707 71.7071C168.068 71.3466 168.095 70.7794 167.79 70.3871Z" fill="#1FD286"/>
</g>
</g>
<defs>
<filter id="filter0_d_1408_9140" x="0" y="0" width="275.258" height="132" filterUnits="userSpaceOnUse" color-interpolation-filters="sRGB">
<feFlood flood-opacity="0" result="BackgroundImageFix"/>
<feColorMatrix in="SourceAlpha" type="matrix" values="0 0 0 0 0 0 0 0 0 0 0 0 0 0 0 0 0 0 127 0" result="hardAlpha"/>
<feOffset dy="4"/>
<feGaussianBlur stdDeviation="5"/>
<feComposite in2="hardAlpha" operator="out"/>
<feColorMatrix type="matrix" values="0 0 0 0 0 0 0 0 0 0 0 0 0 0 0 0 0 0 0.15 0"/>
<feBlend mode="normal" in2="BackgroundImageFix" result="effect1_dropShadow_1408_9140"/>
<feBlend mode="normal" in="SourceGraphic" in2="effect1_dropShadow_1408_9140" result="shape"/>
</filter>
<filter id="filter1_d_1408_9140" x="6" y="3" width="263.258" height="120" filterUnits="userSpaceOnUse" color-interpolation-filters="sRGB">
<feFlood flood-opacity="0" result="BackgroundImageFix"/>
<feColorMatrix in="SourceAlpha" type="matrix" values="0 0 0 0 0 0 0 0 0 0 0 0 0 0 0 0 0 0 127 0" result="hardAlpha"/>
<feOffset dy="1"/>
<feGaussianBlur stdDeviation="2"/>
<feColorMatrix type="matrix" values="0 0 0 0 0.0823529 0 0 0 0 0.133333 0 0 0 0 0.196078 0 0 0 0.08 0"/>
<feBlend mode="normal" in2="BackgroundImageFix" result="effect1_dropShadow_1408_9140"/>
<feBlend mode="normal" in="SourceGraphic" in2="effect1_dropShadow_1408_9140" result="shape"/>
</filter>
<clipPath id="clip0_1408_9140">
<rect width="255.258" height="112" fill="white" transform="translate(10 6)"/>
</clipPath>
<clipPath id="clip1_1408_9140">
<rect width="143" height="48" fill="white" transform="translate(38 38)"/>
</clipPath>
</defs>
</svg>
