<svg width="125" height="31" viewBox="0 0 125 31" fill="none" xmlns="http://www.w3.org/2000/svg">
<path d="M21.9177 14.0001C20.5727 18.0573 18.5617 1.70654 21.9177 4.40238C23.5546 5.71671 25.6665 1.70314 28 2.00014C28.5999 2.07674 29.4924 6.93428 30.9309 6.93428C31.9517 6.93428 32.9726 6.94167 33.9934 6.95645L22.67 26.0001L0.129725 25.994C0.107569 25.9939 0.0858186 25.9891 0.066515 25.98C0.0472115 25.9709 0.0309886 25.9579 0.0193768 25.9422C0.007765 25.9265 0.00114402 25.9086 0.000135457 25.8901C-0.000873106 25.8717 0.00376333 25.8533 0.0136109 25.8368L21.9177 14.0001Z" fill="#1A7DC0"/>
<path d="M38.868 20.3056L39.5407 17.5931C40.4087 18.0488 41.7975 18.5045 43.208 18.5045C44.727 18.5045 45.5299 17.8752 45.5299 16.9204C45.5299 16.009 44.8355 15.4882 43.0778 14.8806C40.6474 14.0126 39.0416 12.6672 39.0416 10.5406C39.0416 8.0451 41.1465 6.1572 44.5751 6.1572C46.246 6.1572 47.4395 6.4827 48.3075 6.895L47.5697 9.5424C47.0055 9.2603 45.9422 8.848 44.5317 8.848C43.0995 8.848 42.4051 9.5207 42.4051 10.2585C42.4051 11.1916 43.208 11.6039 45.1176 12.32C47.6999 13.2748 48.8934 14.6202 48.8934 16.6817C48.8934 19.1338 47.0272 21.217 43.0127 21.217C41.3418 21.217 39.6926 20.7613 38.868 20.3056ZM60.044 14.7287V18.4394C60.044 19.4376 60.0874 20.4141 60.2176 21H57.2447L57.0494 19.9367H56.9843C56.2899 20.783 55.2049 21.2387 53.9463 21.2387C51.798 21.2387 50.5177 19.6763 50.5177 17.9837C50.5177 15.2278 52.9915 13.9258 56.7456 13.9258V13.7956C56.7456 13.2097 56.4418 12.4068 54.8143 12.4068C53.7293 12.4068 52.5792 12.7757 51.8848 13.2097L51.2772 11.0831C52.015 10.6708 53.4689 10.1283 55.4002 10.1283C58.9373 10.1283 60.044 12.2115 60.044 14.7287ZM56.8541 17.1374V15.9873C55.1181 15.9873 53.7727 16.3996 53.7727 17.6582C53.7727 18.5045 54.3369 18.9168 55.0747 18.9168C55.8776 18.9168 56.572 18.3743 56.789 17.7016C56.8324 17.528 56.8541 17.3327 56.8541 17.1374ZM62.6766 21V5.593H65.975V21H62.6766ZM78.027 16.7468H71.1915C71.2783 18.1139 72.6454 18.7649 74.1861 18.7649C75.3145 18.7649 76.2259 18.613 77.1156 18.3092L77.5496 20.5443C76.4646 21 75.1409 21.217 73.7087 21.217C70.1065 21.217 68.045 19.1338 68.045 15.8137C68.045 13.1229 69.7159 10.15 73.4049 10.15C76.8335 10.15 78.1355 12.8191 78.1355 15.4448C78.1355 16.009 78.0704 16.5081 78.027 16.7468ZM71.1698 14.49H75.0758C75.0758 13.6871 74.7286 12.3417 73.2096 12.3417C71.8208 12.3417 71.2566 13.622 71.1698 14.49ZM79.5096 20.4792L80.0955 18.1356C80.7031 18.5045 81.9617 18.9168 82.9382 18.9168C83.9364 18.9168 84.3487 18.5913 84.3487 18.0488C84.3487 17.4846 84.0232 17.2242 82.808 16.8119C80.5946 16.0741 79.7483 14.8806 79.77 13.622C79.77 11.6256 81.4626 10.1283 84.0883 10.1283C85.3252 10.1283 86.4102 10.4321 87.0612 10.7576L86.497 13.0361C86.0196 12.7757 85.0865 12.4285 84.1968 12.4285C83.3939 12.4285 82.9382 12.754 82.9382 13.2748C82.9382 13.7956 83.3505 14.056 84.6525 14.5117C86.6706 15.2061 87.4952 16.2477 87.5169 17.7884C87.5169 19.7848 85.9762 21.2387 82.9382 21.2387C81.5494 21.2387 80.3125 20.9132 79.5096 20.4792Z" fill="black"/>
<path d="M89.6346 20.9349V6.5695C90.5026 6.4176 92.2386 6.2657 93.9095 6.2657C95.9276 6.2657 97.1645 6.461 98.2495 7.0903C99.2694 7.6328 99.9855 8.631 99.9855 9.9764C99.9855 11.2567 99.226 12.4502 97.5768 13.0795V13.1229C99.2477 13.5569 100.485 14.8372 100.485 16.7034C100.485 18.0488 99.877 19.0904 98.9656 19.8282C97.9023 20.6745 96.1229 21.1519 93.2151 21.1519C91.5876 21.1519 90.3724 21.0434 89.6346 20.9349ZM92.9113 8.7612V12.1681H93.9963C95.754 12.1681 96.6654 11.452 96.6654 10.367C96.6654 9.2603 95.8191 8.6744 94.3218 8.6744C93.584 8.6744 93.1717 8.7178 92.9113 8.7612ZM92.9113 14.5334V18.6564C93.2368 18.6998 93.6274 18.6998 94.1916 18.6998C95.6889 18.6998 97.0126 18.1139 97.0126 16.5732C97.0126 15.1193 95.6889 14.5334 94.0397 14.5334H92.9113ZM107.827 10.1283C111.061 10.1283 113.231 12.3634 113.231 15.575C113.231 19.4593 110.475 21.2387 107.632 21.2387C104.529 21.2387 102.142 19.1989 102.142 15.7703C102.142 12.32 104.399 10.1283 107.827 10.1283ZM107.719 12.4936C106.156 12.4936 105.549 14.1211 105.549 15.6835C105.549 17.5063 106.308 18.8734 107.719 18.8734C109.021 18.8734 109.824 17.5931 109.824 15.6618C109.824 14.0994 109.216 12.4936 107.719 12.4936ZM113.572 10.3887H117.261L118.303 12.1681C118.607 12.7106 118.889 13.2314 119.171 13.7522H119.214C119.496 13.1663 119.757 12.6455 120.039 12.1247L120.972 10.3887H124.552L121.059 15.4448L124.596 21H120.863L119.8 19.0904C119.496 18.5696 119.236 18.0271 118.975 17.4846H118.91C118.65 18.0488 118.368 18.5696 118.107 19.0904L117.109 21H113.485L117.088 15.5967L113.572 10.3887Z" fill="#1A7DC0"/>
</svg>
